<svg id="Layer_1" data-name="Layer 1" xmlns="http://www.w3.org/2000/svg" viewBox="0 0 225.69 74.4"><defs><style>.cls-1{fill:#1c75bc;}</style></defs><path class="cls-1" d="M378.22,329l-7.67,15.42c2.06,0,3.95-.05,5.83,0,.71,0,1.85.21,2,.62a2.82,2.82,0,0,1-.32,2.33Q365.54,364,352.83,380.58c-.51.67-1.78.75-2.7,1.11-.09-1-.56-2.07-.23-2.85,2.63-6.26,5.42-12.46,8.15-18.67.34-.78.67-1.56,1.21-2.83-3.28.74-6.13,1.43-9,2a10.57,10.57,0,0,1-2.44-.1,8.3,8.3,0,0,1,.43-2.33q12.06-23.58,24.19-47.1c.07-.14.13-.28.21-.41.67-1.1,1.12-2.79,2.88-1.83,1.59.87.66,2.18.1,3.26q-9.92,19.26-19.86,38.52c-1,1.85-1.87,3.73-3,6,2.73-.49,5-1,7.3-1.28a19.17,19.17,0,0,1,3.12.06,13.37,13.37,0,0,1-.46,3.27,107.66,107.66,0,0,0-3.86,10.33l15-20.24c-2.1.25-3.46.45-4.83.57s-2.52.13-4.17.22a21.67,21.67,0,0,1,.81-2.17c3.59-6.94,7.18-13.87,10.84-20.77.34-.66,1.18-1.58,1.67-1.52a3,3,0,0,1,1.93,1.55Q392,349.56,403.71,373.8c.21.42.4.85.63,1.26.6,1.08.84,2.28-.56,2.67-.59.16-1.82-.66-2.19-1.34-1.82-3.36-3.47-6.82-5.14-10.26q-8.91-18.33-17.79-36.68A4.26,4.26,0,0,0,378.22,329Z" transform="translate(-190.28 -307.29)"/><path class="cls-1" d="M229.35,322.41v13.53h2.84l34.95,0A4.73,4.73,0,0,1,269,336a12.13,12.13,0,0,1,2.16,1.59c-.74.53-1.45,1.09-2.23,1.56-.22.14-.61,0-.92,0-13,0-26-.1-38.93,0-2.34,0-3.14-.64-3-3,.19-4,0-8,0-12,0-1.48-.56-2-2.12-1.49v18.44c.83.06,1.66.18,2.48.18l41.28,0c.31,0,.62,0,.94,0,1.18.06,2.67.06,2.43,1.69-.09.61-1.52,1.45-2.34,1.45-15.32.09-30.64.05-46,.08-1.48,0-2.1-.5-2.09-2q.07-10.68,0-21.35c0-1.48.61-1.86,2-1.86,15.32,0,30.64,0,46,0,1.16,0,2.6,0,2.55,1.65s-1.45,1.55-2.64,1.55h-39.2Z" transform="translate(-190.28 -307.29)"/><path class="cls-1" d="M318,313.87c5.79,0,11.57,0,17.36,0,1.32,0,2.82.07,2.6,1.76-.08.62-1.7,1.45-2.62,1.46-11,.11-22.05.08-33.07.09-7.29,0-12.47,5-12.51,12-.05,6.78,5.1,11.87,12.29,12,5.55.1,11.1,0,16.65,0a15.58,15.58,0,0,1,15.59,15.21c.2,8-6.87,15.54-15,15.65-11.41.14-22.82.08-34.24,0-.88,0-2.4-.93-2.51-1.62-.28-1.67,1.27-1.58,2.45-1.58,11.25,0,22.51.07,33.77,0A12.29,12.29,0,0,0,330.64,353a12.12,12.12,0,0,0-11.38-8.57c-5.79,0-11.57.06-17.35,0a15.28,15.28,0,0,1-3.35-30.2,16.25,16.25,0,0,1,3.49-.32C307.36,313.86,312.68,313.87,318,313.87Z" transform="translate(-190.28 -307.29)"/><path class="cls-1" d="M218.71,317.25v56.83c.81,0,1.64.12,2.47.12h46.9c.32,0,.69-.11.93,0,.83.49,1.61,1.06,2.42,1.6-.84.49-1.68,1.41-2.53,1.42-17.12.07-34.24,0-51.35.06-1.81,0-2.21-.71-2.21-2.38q.09-29.21,0-58.41c0-2.1.72-2.64,2.72-2.63,16.65.06,33.3,0,50,0a4.69,4.69,0,0,1,2.07.19,2.3,2.3,0,0,1,1.06,1.57,1.75,1.75,0,0,1-1.07,1.28,9,9,0,0,1-2.55.17h-46.9C220,317.12,219.44,317.2,218.71,317.25Z" transform="translate(-190.28 -307.29)"/><path class="cls-1" d="M303,377.32H285.88a5.09,5.09,0,0,1-2.08-.13,2.71,2.71,0,0,1-1.34-1.58c-.08-.29.79-1,1.35-1.24a6.26,6.26,0,0,1,2.09-.13c11,0,22,.08,33.05-.13a17.66,17.66,0,0,0,16.39-23.9A17.9,17.9,0,0,0,318.69,339c-5.86,0-11.73.08-17.58-.1a9.78,9.78,0,0,1-2.46-19.08,14,14,0,0,1,3.92-.52q16.41-.12,32.82-.14a3.52,3.52,0,0,1,2,.46c.38.27.71,1.38.53,1.55a3.89,3.89,0,0,1-2.2,1.21c-7,.08-13.91.05-20.87.05-4.22,0-8.44-.05-12.66,0-4,0-7,2.81-7.08,6.56-.07,4,2.68,6.88,6.9,6.94,5.78.07,11.56,0,17.35,0,11.16,0,20.11,9.14,20.24,20.63.13,11-8.83,20.48-19.7,20.73C314.26,377.42,308.63,377.32,303,377.32Z" transform="translate(-190.28 -307.29)"/><path class="cls-1" d="M317.83,308.63H335a4.12,4.12,0,0,1,1.84.15,2.27,2.27,0,0,1,1.15,1.5c0,.46-.74,1.1-1.28,1.31a6.3,6.3,0,0,1-2.09.08c-10.95,0-21.89-.1-32.84,0-8.74.05-15.86,6.45-17.27,15.25a17.07,17.07,0,0,0,11.45,18.58,29,29,0,0,0,7.85,1c4.92.13,9.85-.11,14.77,0a10.25,10.25,0,0,1,10.3,8.78,9.94,9.94,0,0,1-7.55,10.93,16.17,16.17,0,0,1-4.18.41q-15.83.11-31.66.14c-.54,0-1.21.12-1.6-.15-.56-.37-1.3-1.07-1.26-1.58s.83-1.16,1.44-1.44a4.74,4.74,0,0,1,1.85-.05q16.06,0,32.13,0c4.53,0,7.76-3,7.77-7s-3.14-6.74-7.7-6.76c-5.55,0-11.1,0-16.65,0a20.53,20.53,0,0,1,.22-41.06c5.4,0,10.79,0,16.19,0Z" transform="translate(-190.28 -307.29)"/><path class="cls-1" d="M381.49,311.37c-3.61,6.95-7,13.52-10.44,20.08-1.33,2.56-2.7,5.11-4.06,7.65-.58,1.08-1.31,2.28-2.64,1.32-.44-.32-.43-1.87-.08-2.58,4.71-9.43,9.47-18.83,14.38-28.16.43-.82,1.94-1.2,3-1.51,1.46-.41,2.25.56,2.84,1.8q5.81,12,11.66,24,9.69,19.89,19.41,39.78c.14.28.43.6.38.84-.17.88-.46,1.73-.71,2.59-.72-.41-1.77-.63-2.1-1.24-1.64-3.1-3.08-6.31-4.62-9.47q-12.84-26.31-25.71-52.61C382.49,313.19,382.1,312.52,381.49,311.37Z" transform="translate(-190.28 -307.29)"/><path class="cls-1" d="M229.44,349.72v13.45c1.23.08,2.37.22,3.51.22l34.68.12a7.13,7.13,0,0,1,2.32.13,2,2,0,0,1,1.2,1.38c0,.49-.62,1.17-1.14,1.44a4.15,4.15,0,0,1-1.85.15c-13.12,0-26.24-.05-39.36,0-2.19,0-2.8-.66-2.75-2.79.13-5.07.08-10.15,0-15.23,0-1.61.43-2.17,2.1-2.16,13.43.1,26.87.1,40.3.15,1.16,0,2.63-.18,2.64,1.5,0,1.85-1.56,1.62-2.78,1.62q-17.93,0-35.85,0Z" transform="translate(-190.28 -307.29)"/><path class="cls-1" d="M223.9,346.94V368.8h44a5,5,0,0,1,2.07.11c.6.28,1.34,1,1.34,1.56s-.79,1.16-1.36,1.55c-.32.22-.91.06-1.38.06-15,0-30-.08-45,0-2.3,0-2.88-.7-2.83-2.91.14-6.64.12-13.29,0-19.93C220.69,347.08,221.32,346.16,223.9,346.94Z" transform="translate(-190.28 -307.29)"/><path class="cls-1" d="M204,342.76q0,15.83,0,31.64c0,.47.17,1.05-.05,1.38-.41.62-1,1.37-1.62,1.53-.35.09-1.11-.81-1.44-1.41-.24-.42-.07-1.07-.07-1.61l0-63.05a3.29,3.29,0,0,1,.11-1.61c.3-.53.92-1.21,1.41-1.22a2.23,2.23,0,0,1,1.54,1.11,3.91,3.91,0,0,1,.15,1.83Q204,327.05,204,342.76Z" transform="translate(-190.28 -307.29)"/><path class="cls-1" d="M195.56,342.74V311.58c0-.47-.16-1,.05-1.39a15.69,15.69,0,0,1,1.57-1.92,7.69,7.69,0,0,1,1.45,2.05,10.89,10.89,0,0,1,0,2.8q.06,30.69.13,61.38a3.53,3.53,0,0,1-.1,1.61c-.31.52-.93,1.16-1.43,1.17a2,2,0,0,1-1.52-1.07,6.28,6.28,0,0,1-.16-2.31q0-15.58,0-31.16Z" transform="translate(-190.28 -307.29)"/><path class="cls-1" d="M381.44,316.47c.71,1.26,1.37,2.28,1.9,3.37q13.31,27.23,26.6,54.48c.17.35.52.74.47,1.05a16,16,0,0,1-.71,2.19,5.39,5.39,0,0,1-1.95-.74,6.67,6.67,0,0,1-1.11-2q-12.67-26-25.34-52a5.08,5.08,0,0,0-.77-1.44C378.5,319.43,380,318.15,381.44,316.47Z" transform="translate(-190.28 -307.29)"/><path class="cls-1" d="M190.32,342.53V311.81a6,6,0,0,1,.1-2.09c.22-.55.86-1.27,1.34-1.29s1.12.65,1.43,1.18a3.51,3.51,0,0,1,.12,1.61q0,31.77.07,63.55c0,1.15.2,2.6-1.57,2.54s-1.51-1.49-1.51-2.65q0-16.07,0-32.13Z" transform="translate(-190.28 -307.29)"/><path class="cls-1" d="M243.08,311.66h-25.3c-1.1,0-2.37.12-2.41-1.47s1.19-1.57,2.33-1.57h50.59c.47,0,1-.15,1.38.07.58.36,1.38.92,1.42,1.46s-.76,1.16-1.34,1.45a4.33,4.33,0,0,1-1.85.1H243.08Z" transform="translate(-190.28 -307.29)"/></svg>